<mxfile host="app.diagrams.net" modified="2022-01-27T15:31:33.714Z" agent="5.0 (Windows NT 10.0; Win64; x64) AppleWebKit/537.36 (KHTML, like Gecko) Chrome/92.0.4515.107 Safari/537.36 Edg/92.0.902.55" etag="Ws41SUPPfprxhW8PaVy0" version="16.4.8" type="github">
  <diagram id="Vj-7gIYnh4FVoZP8OCP-" name="Page-1">
    <mxGraphModel dx="1388" dy="1099" grid="1" gridSize="10" guides="1" tooltips="1" connect="1" arrows="1" fold="1" page="1" pageScale="1" pageWidth="1400" pageHeight="850" math="0" shadow="0">
      <root>
        <mxCell id="0" />
        <mxCell id="1" parent="0" />
        <mxCell id="5kDCCWpD2KT_Ys93XdkI-5" value="s" style="rounded=0;whiteSpace=wrap;html=1;fillColor=#f5f5f5;strokeColor=#666666;fontColor=#333333;" vertex="1" parent="1">
          <mxGeometry x="1055" y="50" width="220" height="609" as="geometry" />
        </mxCell>
        <mxCell id="5kDCCWpD2KT_Ys93XdkI-2" value="" style="outlineConnect=0;dashed=0;verticalLabelPosition=bottom;verticalAlign=top;align=center;html=1;shape=mxgraph.aws3.postgre_sql_instance;fillColor=#2E73B8;gradientColor=none;" vertex="1" parent="1">
          <mxGeometry x="1110" y="150" width="110" height="90" as="geometry" />
        </mxCell>
        <mxCell id="5kDCCWpD2KT_Ys93XdkI-3" value="" style="outlineConnect=0;dashed=0;verticalLabelPosition=bottom;verticalAlign=top;align=center;html=1;shape=mxgraph.aws3.postgre_sql_instance;fillColor=#2E73B8;gradientColor=none;" vertex="1" parent="1">
          <mxGeometry x="1110" y="330" width="110" height="90" as="geometry" />
        </mxCell>
        <mxCell id="5kDCCWpD2KT_Ys93XdkI-4" value="" style="outlineConnect=0;dashed=0;verticalLabelPosition=bottom;verticalAlign=top;align=center;html=1;shape=mxgraph.aws3.postgre_sql_instance;fillColor=#2E73B8;gradientColor=none;" vertex="1" parent="1">
          <mxGeometry x="1110" y="510" width="110" height="90" as="geometry" />
        </mxCell>
        <mxCell id="5kDCCWpD2KT_Ys93XdkI-6" value="" style="outlineConnect=0;dashed=0;verticalLabelPosition=bottom;verticalAlign=top;align=center;html=1;shape=mxgraph.aws3.vpn_gateway;fillColor=#e51400;fontColor=#ffffff;strokeColor=#B20000;" vertex="1" parent="1">
          <mxGeometry x="1060" y="60" width="40" height="40" as="geometry" />
        </mxCell>
        <UserObject label="subnet group" placeholders="1" name="Variable" id="5kDCCWpD2KT_Ys93XdkI-9">
          <mxCell style="text;html=1;strokeColor=none;fillColor=none;align=center;verticalAlign=middle;whiteSpace=wrap;overflow=hidden;fontSize=13;fontColor=#3333FF;" vertex="1" parent="1">
            <mxGeometry x="1102" y="70" width="80" height="20" as="geometry" />
          </mxCell>
        </UserObject>
        <UserObject label="IAAM Database" placeholders="1" name="Variable" id="5kDCCWpD2KT_Ys93XdkI-11">
          <mxCell style="text;html=1;strokeColor=none;fillColor=none;align=center;verticalAlign=middle;whiteSpace=wrap;overflow=hidden;fontSize=13;fontColor=#3333FF;" vertex="1" parent="1">
            <mxGeometry x="1102" y="250" width="120" height="20" as="geometry" />
          </mxCell>
        </UserObject>
        <UserObject label="ED Database" placeholders="1" name="Variable" id="5kDCCWpD2KT_Ys93XdkI-12">
          <mxCell style="text;html=1;strokeColor=none;fillColor=none;align=center;verticalAlign=middle;whiteSpace=wrap;overflow=hidden;fontSize=13;fontColor=#3333FF;" vertex="1" parent="1">
            <mxGeometry x="1105" y="437" width="120" height="20" as="geometry" />
          </mxCell>
        </UserObject>
        <UserObject label="Registry Database" placeholders="1" name="Variable" id="5kDCCWpD2KT_Ys93XdkI-13">
          <mxCell style="text;html=1;strokeColor=none;fillColor=none;align=center;verticalAlign=middle;whiteSpace=wrap;overflow=hidden;fontSize=13;fontColor=#3333FF;" vertex="1" parent="1">
            <mxGeometry x="1110" y="610" width="120" height="20" as="geometry" />
          </mxCell>
        </UserObject>
        <mxCell id="5kDCCWpD2KT_Ys93XdkI-14" value="" style="whiteSpace=wrap;html=1;aspect=fixed;fontSize=13;fillColor=#dae8fc;strokeColor=#6c8ebf;" vertex="1" parent="1">
          <mxGeometry x="494" y="100" width="230" height="230" as="geometry" />
        </mxCell>
        <mxCell id="5kDCCWpD2KT_Ys93XdkI-15" value="" style="whiteSpace=wrap;html=1;aspect=fixed;fontSize=13;fillColor=#dae8fc;strokeColor=#6c8ebf;" vertex="1" parent="1">
          <mxGeometry x="496" y="410" width="230" height="230" as="geometry" />
        </mxCell>
        <mxCell id="5kDCCWpD2KT_Ys93XdkI-16" value="" style="endArrow=none;dashed=1;html=1;dashPattern=1 3;strokeWidth=2;rounded=0;fontSize=13;fontColor=#3333FF;" edge="1" parent="1">
          <mxGeometry width="50" height="50" relative="1" as="geometry">
            <mxPoint x="610.33" y="750" as="sourcePoint" />
            <mxPoint x="610.33" y="680" as="targetPoint" />
          </mxGeometry>
        </mxCell>
        <mxCell id="5kDCCWpD2KT_Ys93XdkI-24" value="" style="endArrow=classic;startArrow=classic;html=1;rounded=0;fontSize=13;fontColor=#3333FF;exitX=1;exitY=0.5;exitDx=0;exitDy=0;entryX=0;entryY=0.5;entryDx=0;entryDy=0;entryPerimeter=0;" edge="1" parent="1" source="5kDCCWpD2KT_Ys93XdkI-14" target="5kDCCWpD2KT_Ys93XdkI-2">
          <mxGeometry width="50" height="50" relative="1" as="geometry">
            <mxPoint x="930" y="240" as="sourcePoint" />
            <mxPoint x="980" y="190" as="targetPoint" />
          </mxGeometry>
        </mxCell>
        <mxCell id="5kDCCWpD2KT_Ys93XdkI-25" value="" style="endArrow=classic;startArrow=classic;html=1;rounded=0;fontSize=13;fontColor=#3333FF;entryX=0;entryY=0.5;entryDx=0;entryDy=0;entryPerimeter=0;exitX=0.985;exitY=0.588;exitDx=0;exitDy=0;exitPerimeter=0;" edge="1" parent="1" source="5kDCCWpD2KT_Ys93XdkI-14" target="5kDCCWpD2KT_Ys93XdkI-3">
          <mxGeometry width="50" height="50" relative="1" as="geometry">
            <mxPoint x="880" y="230" as="sourcePoint" />
            <mxPoint x="740" y="390" as="targetPoint" />
          </mxGeometry>
        </mxCell>
        <mxCell id="5kDCCWpD2KT_Ys93XdkI-26" value="" style="endArrow=classic;startArrow=classic;html=1;rounded=0;fontSize=13;fontColor=#3333FF;entryX=0;entryY=0.5;entryDx=0;entryDy=0;entryPerimeter=0;exitX=1;exitY=0.75;exitDx=0;exitDy=0;" edge="1" parent="1" source="5kDCCWpD2KT_Ys93XdkI-14" target="5kDCCWpD2KT_Ys93XdkI-4">
          <mxGeometry width="50" height="50" relative="1" as="geometry">
            <mxPoint x="690" y="440" as="sourcePoint" />
            <mxPoint x="740" y="390" as="targetPoint" />
          </mxGeometry>
        </mxCell>
        <mxCell id="5kDCCWpD2KT_Ys93XdkI-27" value="" style="endArrow=classic;startArrow=classic;html=1;rounded=0;fontSize=13;fontColor=#3333FF;exitX=1;exitY=0.25;exitDx=0;exitDy=0;" edge="1" parent="1" source="5kDCCWpD2KT_Ys93XdkI-15">
          <mxGeometry width="50" height="50" relative="1" as="geometry">
            <mxPoint x="690" y="440" as="sourcePoint" />
            <mxPoint x="1100" y="200" as="targetPoint" />
          </mxGeometry>
        </mxCell>
        <mxCell id="5kDCCWpD2KT_Ys93XdkI-28" value="" style="endArrow=classic;startArrow=classic;html=1;rounded=0;fontSize=13;fontColor=#3333FF;exitX=1;exitY=0.5;exitDx=0;exitDy=0;entryX=0;entryY=0.5;entryDx=0;entryDy=0;entryPerimeter=0;" edge="1" parent="1" source="5kDCCWpD2KT_Ys93XdkI-15" target="5kDCCWpD2KT_Ys93XdkI-3">
          <mxGeometry width="50" height="50" relative="1" as="geometry">
            <mxPoint x="890" y="477.5" as="sourcePoint" />
            <mxPoint x="1110" y="210" as="targetPoint" />
          </mxGeometry>
        </mxCell>
        <mxCell id="5kDCCWpD2KT_Ys93XdkI-29" value="" style="endArrow=classic;startArrow=classic;html=1;rounded=0;fontSize=13;fontColor=#3333FF;entryX=0;entryY=0.5;entryDx=0;entryDy=0;entryPerimeter=0;" edge="1" parent="1" source="5kDCCWpD2KT_Ys93XdkI-15" target="5kDCCWpD2KT_Ys93XdkI-4">
          <mxGeometry width="50" height="50" relative="1" as="geometry">
            <mxPoint x="890" y="535" as="sourcePoint" />
            <mxPoint x="1120" y="385" as="targetPoint" />
          </mxGeometry>
        </mxCell>
        <mxCell id="5kDCCWpD2KT_Ys93XdkI-30" value="" style="outlineConnect=0;dashed=0;verticalLabelPosition=bottom;verticalAlign=top;align=center;html=1;shape=mxgraph.aws3.ec2;fillColor=#F58534;gradientColor=none;fontSize=13;fontColor=#3333FF;" vertex="1" parent="1">
          <mxGeometry x="570.75" y="152" width="76.5" height="93" as="geometry" />
        </mxCell>
        <mxCell id="5kDCCWpD2KT_Ys93XdkI-31" value="" style="outlineConnect=0;dashed=0;verticalLabelPosition=bottom;verticalAlign=top;align=center;html=1;shape=mxgraph.aws3.ec2;fillColor=#F58534;gradientColor=none;fontSize=13;fontColor=#3333FF;" vertex="1" parent="1">
          <mxGeometry x="572.75" y="467.5" width="76.5" height="93" as="geometry" />
        </mxCell>
        <mxCell id="5kDCCWpD2KT_Ys93XdkI-32" value="" style="outlineConnect=0;dashed=0;verticalLabelPosition=bottom;verticalAlign=top;align=center;html=1;shape=mxgraph.aws3.auto_scaling;fillColor=#F58534;gradientColor=none;fontSize=13;fontColor=#3333FF;" vertex="1" parent="1">
          <mxGeometry x="512" y="160" width="39.5" height="26.5" as="geometry" />
        </mxCell>
        <mxCell id="5kDCCWpD2KT_Ys93XdkI-33" value="" style="outlineConnect=0;dashed=0;verticalLabelPosition=bottom;verticalAlign=top;align=center;html=1;shape=mxgraph.aws3.auto_scaling;fillColor=#F58534;gradientColor=none;fontSize=13;fontColor=#3333FF;" vertex="1" parent="1">
          <mxGeometry x="512" y="470" width="39.5" height="26.5" as="geometry" />
        </mxCell>
        <mxCell id="5kDCCWpD2KT_Ys93XdkI-34" value="" style="outlineConnect=0;dashed=0;verticalLabelPosition=bottom;verticalAlign=top;align=center;html=1;shape=mxgraph.aws3.vpn_gateway;fillColor=#e51400;fontSize=13;fontColor=#ffffff;strokeColor=#B20000;" vertex="1" parent="1">
          <mxGeometry x="494" y="100" width="41.5" height="40" as="geometry" />
        </mxCell>
        <mxCell id="5kDCCWpD2KT_Ys93XdkI-35" value="" style="outlineConnect=0;dashed=0;verticalLabelPosition=bottom;verticalAlign=top;align=center;html=1;shape=mxgraph.aws3.vpn_gateway;fillColor=#e51400;fontSize=13;fontColor=#ffffff;strokeColor=#B20000;" vertex="1" parent="1">
          <mxGeometry x="496" y="410" width="41.5" height="40" as="geometry" />
        </mxCell>
        <UserObject label="%name% Text" placeholders="1" name="Variable" id="5kDCCWpD2KT_Ys93XdkI-36">
          <mxCell style="text;html=1;strokeColor=none;fillColor=none;align=center;verticalAlign=middle;whiteSpace=wrap;overflow=hidden;fontSize=13;fontColor=#3333FF;" vertex="1" parent="1">
            <mxGeometry x="110" y="280" width="80" height="20" as="geometry" />
          </mxCell>
        </UserObject>
        <UserObject label="security groups" placeholders="1" name="Variable" id="5kDCCWpD2KT_Ys93XdkI-37">
          <mxCell style="text;html=1;strokeColor=none;fillColor=none;align=center;verticalAlign=middle;whiteSpace=wrap;overflow=hidden;fontSize=13;fontColor=#3333FF;" vertex="1" parent="1">
            <mxGeometry x="590" y="299.51" width="110" height="20" as="geometry" />
          </mxCell>
        </UserObject>
        <UserObject label="%name% Text" placeholders="1" name="Variable" id="5kDCCWpD2KT_Ys93XdkI-38">
          <mxCell style="text;html=1;strokeColor=none;fillColor=none;align=center;verticalAlign=middle;whiteSpace=wrap;overflow=hidden;fontSize=13;fontColor=#3333FF;" vertex="1" parent="1">
            <mxGeometry x="130" y="300" width="80" height="20" as="geometry" />
          </mxCell>
        </UserObject>
        <UserObject label="%name% Text" placeholders="1" name="Variable" id="5kDCCWpD2KT_Ys93XdkI-39">
          <mxCell style="text;html=1;strokeColor=none;fillColor=none;align=center;verticalAlign=middle;whiteSpace=wrap;overflow=hidden;fontSize=13;fontColor=#3333FF;" vertex="1" parent="1">
            <mxGeometry x="140" y="310" width="80" height="20" as="geometry" />
          </mxCell>
        </UserObject>
        <UserObject label="Private subnet&lt;br&gt;&lt;b&gt;AZ1&lt;/b&gt;" placeholders="1" name="Variable" id="5kDCCWpD2KT_Ys93XdkI-40">
          <mxCell style="text;html=1;strokeColor=none;fillColor=none;align=center;verticalAlign=middle;whiteSpace=wrap;overflow=hidden;fontSize=13;fontColor=#3333FF;" vertex="1" parent="1">
            <mxGeometry x="527.25" y="100" width="120" height="40" as="geometry" />
          </mxCell>
        </UserObject>
        <UserObject label="Private subnet&lt;br&gt;&lt;b&gt;AZ2&lt;/b&gt;" placeholders="1" name="Variable" id="5kDCCWpD2KT_Ys93XdkI-41">
          <mxCell style="text;html=1;strokeColor=none;fillColor=none;align=center;verticalAlign=middle;whiteSpace=wrap;overflow=hidden;fontSize=13;fontColor=#3333FF;" vertex="1" parent="1">
            <mxGeometry x="527.25" y="410" width="120" height="40" as="geometry" />
          </mxCell>
        </UserObject>
        <mxCell id="5kDCCWpD2KT_Ys93XdkI-42" value="" style="sketch=0;outlineConnect=0;fontColor=#232F3E;gradientColor=none;fillColor=#BF0816;strokeColor=none;dashed=0;verticalLabelPosition=bottom;verticalAlign=top;align=center;html=1;fontSize=12;fontStyle=0;aspect=fixed;pointerEvents=1;shape=mxgraph.aws4.addon;" vertex="1" parent="1">
          <mxGeometry x="640" y="280" width="40" height="20.51" as="geometry" />
        </mxCell>
        <mxCell id="5kDCCWpD2KT_Ys93XdkI-43" value="" style="sketch=0;outlineConnect=0;fontColor=#232F3E;gradientColor=none;fillColor=#BF0816;strokeColor=none;dashed=0;verticalLabelPosition=bottom;verticalAlign=top;align=center;html=1;fontSize=12;fontStyle=0;aspect=fixed;pointerEvents=1;shape=mxgraph.aws4.addon;" vertex="1" parent="1">
          <mxGeometry x="640" y="590.49" width="40" height="20.51" as="geometry" />
        </mxCell>
        <UserObject label="security groups" placeholders="1" name="Variable" id="5kDCCWpD2KT_Ys93XdkI-44">
          <mxCell style="text;html=1;strokeColor=none;fillColor=none;align=center;verticalAlign=middle;whiteSpace=wrap;overflow=hidden;fontSize=13;fontColor=#3333FF;" vertex="1" parent="1">
            <mxGeometry x="590" y="610" width="110" height="20" as="geometry" />
          </mxCell>
        </UserObject>
      </root>
    </mxGraphModel>
  </diagram>
</mxfile>
